<svg width="37" height="38" viewBox="0 0 37 38" fill="none" xmlns="http://www.w3.org/2000/svg">
<path fill-rule="evenodd" clip-rule="evenodd" d="M15.204 14.2093C15.8339 14.5995 16.3333 15.179 16.6351 15.8703L16.6283 15.8745C17.2409 17.4866 17.4562 19.2304 17.2547 20.9495C17.115 22.056 16.8448 23.1408 16.45 24.1796C16.0919 24.9369 15.608 25.6235 15.0203 26.2085C13.955 27.1356 12.5669 27.5695 11.1821 27.4082C10.595 27.3526 10.021 27.1963 9.48374 26.9456C9.13556 26.8021 8.80516 26.6164 8.49952 26.3924L10.1993 24.3579C10.4866 24.5742 10.8273 24.7022 11.1821 24.7271C11.9009 24.8576 12.6359 24.616 13.1492 24.0806C13.7136 23.4694 14.0874 22.6976 14.2225 21.8649C13.4355 22.3197 12.532 22.5138 11.6345 22.421C10.5085 22.3413 9.46844 21.7713 8.77367 20.8533C8.01546 19.9001 7.69 18.6569 7.87992 17.4393C7.90386 16.1921 8.49556 15.0294 9.47688 14.3012C10.4405 13.5298 11.667 13.1967 12.8737 13.3788C13.7071 13.4422 14.5102 13.7284 15.204 14.2093ZM12.1655 19.8375C12.6992 19.9153 13.2417 19.7835 13.6857 19.4682L13.6843 19.4654C14.0553 19.1294 14.3071 18.6753 14.3999 18.175C14.4317 17.6427 14.2726 17.117 13.953 16.6979C13.6173 16.279 13.1351 16.0136 12.611 15.9594C12.1046 15.8363 11.5718 15.9739 11.1813 16.3287C10.8189 16.6596 10.5949 17.1226 10.5562 17.6204C10.5354 18.1385 10.6596 18.6518 10.914 19.0989C11.1988 19.5307 11.6605 19.8031 12.1655 19.8375Z" fill="#313634"/>
<path fill-rule="evenodd" clip-rule="evenodd" d="M25.1285 14.2092C25.7577 14.5999 26.2565 15.1793 26.5583 15.8702H26.5651C27.2206 17.4707 27.4368 19.2264 27.1902 20.9452C27.0505 22.0517 26.7803 23.1364 26.3855 24.1753C26.0231 24.9344 25.5351 25.6224 24.9435 26.2084C23.8781 27.1356 22.4901 27.5694 21.1053 27.4082C20.5176 27.3534 19.943 27.197 19.4055 26.9455C19.0579 26.8018 18.728 26.6161 18.4227 26.3923L20.1211 24.3578C20.409 24.5739 20.7501 24.7019 21.1053 24.7271C21.8236 24.8578 22.5584 24.6161 23.071 24.0805C23.6359 23.4697 24.0099 22.6978 24.1443 21.8649C23.3561 22.3204 22.4508 22.5135 21.5522 22.4181C20.4257 22.3388 19.3851 21.7688 18.69 20.8504C17.9329 19.8966 17.6076 18.654 17.7962 17.4364C17.8246 16.1871 18.4214 15.0244 19.4069 14.2983C20.371 13.5268 21.5979 13.1937 22.8051 13.3759C23.6363 13.4418 24.4368 13.7289 25.1285 14.2092ZM22.0881 19.8388C22.6218 19.9167 23.1643 19.7849 23.6083 19.4695H23.6138C23.9855 19.1336 24.2375 18.6788 24.3294 18.1778C24.3594 17.6437 24.1979 17.1169 23.8756 16.6979C23.5404 16.2794 23.0586 16.0145 22.535 15.9608C22.0286 15.8364 21.4953 15.9742 21.1053 16.33C20.7429 16.6605 20.5184 17.1229 20.4788 17.6204C20.4587 18.1388 20.5829 18.6524 20.8366 19.1003C21.1215 19.5321 21.5831 19.8045 22.0881 19.8388Z" fill="#313634"/>
<path fill-rule="evenodd" clip-rule="evenodd" d="M36.75 8.58094L33.9783 11.4417L30.8502 8.12112L30.1346 8.85966C35.9976 15.9563 35.3845 26.5652 28.7456 32.892C22.1067 39.2188 11.8119 39.0051 5.4248 32.408C-0.962303 25.8108 -1.16179 15.1851 4.9729 8.33746C11.1076 1.48987 21.3866 0.864733 28.258 6.92135L28.9736 6.18281L25.755 2.8622L28.5253 0C34.968 3.87522 36.75 8.58094 36.75 8.58094ZM17.3871 33.3871C24.6037 33.4 30.4674 27.3791 30.4924 19.9307V19.8373C30.4674 12.3889 24.6037 6.36803 17.3871 6.3809C10.1706 6.39378 4.32699 12.4356 4.32699 19.884C4.32699 27.3325 10.1706 33.3743 17.3871 33.3871Z" fill="#70C516"/>
</svg>
