<svg width="82" height="18" viewBox="0 0 82 18" xmlns="http://www.w3.org/2000/svg">
    <g fill-rule="nonzero" fill="none">
        <path fill="#FECC00" d="M0 18V0h81.692v18z"/>
        <path d="M26.34 7.145c-.358.493-.955 1.349-1.318 1.849-.185.254-.518.716.587.716h5.817s.938-1.3 1.724-2.386c1.069-1.479.092-4.555-3.73-4.555H14.367l-2.61 3.613h14.225c.718 0 .708.278.357.763zm-4.274 3.456c-1.105 0-.772-.463-.587-.717.363-.5.97-1.347 1.327-1.84.352-.484.36-.763-.358-.763h-6.506L10.7 14.538h12.783c4.223 0 6.573-2.925 7.298-3.937h-8.715zm8.316 3.937h7.499l2.842-3.937h-7.498c-.002 0-2.843 3.937-2.843 3.937zM49.73 2.77l-2.876 3.98h-3.347l2.875-3.98h-7.497L33.87 9.71h18.342l5.014-6.94H49.73zm-8.503 11.77h7.497l2.844-3.938h-7.496c-.003 0-2.845 3.937-2.845 3.937zM0 12.153v.836h10.444l.603-.836H0zm12.17-1.553H0v.835h11.565l.605-.835zM0 14.538h9.325l.6-.831H0v.831zm70.687-1.548h11.005v-.836h-10.4l-.605.836zm-1.118 1.548h12.123v-.831H70.17l-.6.831zm2.843-3.937-.603.836h9.883v-.836h-9.28zm-9.819-.891 5.015-6.94h-7.94c-.002 0-5.018 6.94-5.018 6.94h7.943zm-8.586.891s-.548.763-.815 1.13c-.94 1.296-.108 2.807 2.964 2.807h12.04l2.844-3.937H54.007z" fill="#D50029"/>
    </g>
</svg>
