<?xml version="1.0" encoding="utf-8"?>
<!-- Generator: Adobe Illustrator 27.0.0, SVG Export Plug-In . SVG Version: 6.00 Build 0)  -->
<svg version="1.1" id="Layer_1" xmlns="http://www.w3.org/2000/svg" xmlns:xlink="http://www.w3.org/1999/xlink" x="0px" y="0px"
	 viewBox="0 0 2560 537" style="enable-background:new 0 0 2560 537;" xml:space="preserve">
<style type="text/css">
	.st0{fill:#E30813;}
</style>
<g transform="translate(0.000000,537.000000) scale(0.100000,-0.100000)">
	<path class="st0" d="M3821,5323c-12-48-263-1150-654-2873l-303-1335l-1140-3l-1139-2L380,713C267,494,142,256,103,183
		C63,110,30,48,30,45s927-5,2060-5h2059l10,38c10,38,493,2151,951,4155c137,605,250,1105,250,1113c0,12-113,14-765,14h-764
		L3821,5323z"/>
	<path class="st0" d="M6147,5333c-4-16-39-170-79-343l-72-315v-180c-1-203,13-304,70-490c75-250,205-489,390-722c41-51,74-94,74-96
		s-28-24-62-47c-566-392-987-889-1127-1332c-105-333-77-664,84-966c105-196,222-325,391-430C6464,12,7359-84,8265,150
		c176,46,303,88,477,159l127,52l83-88c46-48,112-118,148-156l65-67l693,2l692,3l-451,550c-248,303-453,553-455,557
		c-2,3,23,49,56,101c134,213,263,477,343,702c76,210,151,516,159,639l3,49l-523,150c-287,82-525,147-528,144s-21-77-39-164
		c-74-353-148-579-215-661l-20-24l-106,84c-165,128-382,317-564,488c-404,383-692,750-786,1003c-35,93-44,264-21,374
		c59,275,254,490,521,572c71,22,99,25,231,25c123,0,165-4,230-22c181-49,314-142,372-259l28-58l-2-194c-1-106,0-192,2-190
		c6,7,730,1314,784,1417l12,22H7867H6153L6147,5333z M7357,2240c49-58,260-307,468-555c208-247,386-460,397-472l20-21l-84-46
		c-181-99-430-182-614-207c-111-14-328-6-409,16c-91,25-233,99-308,160c-86,71-147,149-200,254c-41,83-42,86-41,185
		c0,82,5,114,25,166c53,140,197,309,378,444c173,130,266,194,272,188C7264,2348,7307,2298,7357,2240z"/>
	<path class="st0" d="M10347,5318c-32-56-270-491-546-998l-221-405l1168-5c1160-5,1167-5,1164-25c-2-11-138-553-302-1205
		c-430-1701-655-2618-645-2628c2-3,339-7,748-10l744-5l484,1934l484,1934l860,3l860,2l210,210l210,210h-785h-785l100,100l100,100
		h781h782l59,49c32,27,95,90,141,140l83,91h-773h-773l100,100l100,100h775h775l180,174l180,175h-3117l-3116,1L10347,5318z"/>
	<path class="st0" d="M23283,2146c-256-49-459-187-552-376c-113-230-83-466,83-633c70-72,162-136,313-221c140-78,195-123,227-187
		c31-63,33-118,7-174c-40-87-129-140-259-155c-135-15-284,11-442,76c-47,20-91,36-98,37c-12,2-152-320-152-348c0-15,108-68,191-94
		c159-50,382-72,531-52c325,43,544,173,647,382c60,123,74,190,69,329c-6,137-25,194-99,292c-64,86-144,149-316,249
		c-169,98-229,143-268,198c-38,56-40,119-3,182c51,86,122,118,278,126c116,6,225-14,343-62c34-13,62-23,62-22c1,1,98,261,133,355
		c6,16-82,56-184,83S23395,2167,23283,2146z"/>
	<path class="st0" d="M24905,2153c-138-19-308-88-412-167c-151-115-242-297-243-486c0-140,43-248,139-353c68-73,139-124,317-227
		c205-120,254-175,254-287c0-72-27-123-88-170c-62-47-136-66-262-65c-141,0-247,25-399,93c-39,17-73,30-75,28
		c-14-17-144-354-139-362c3-5,38-25,78-43c189-87,468-124,680-89c314,51,514,178,614,389c135,284,70,564-171,743
		c-28,21-109,72-179,113c-250,146-294,190-294,295c0,52,4,67,29,99c66,87,171,123,334,113c98-6,192-27,289-65l52-20l17,47
		c10,25,41,108,70,184l52,138l-27,13c-51,26-152,56-237,71C25224,2159,24983,2164,24905,2153z"/>
	<path class="st0" d="M18050,2140c-113-7-342-39-359-49c-10-7-391-1988-391-2037c0-11,40-14,215-14c214,0,215,1,220,23
		c2,12,34,180,71,372c36,193,67,351,68,352s96,4,211,6c188,4,221,7,310,31c55,14,146,49,204,77c89,43,116,63,191,137
		c140,139,208,289,217,477c9,185-36,313-147,425c-103,104-248,168-422,189C18316,2144,18169,2148,18050,2140z M18370,1774
		c78-23,134-65,162-121c32-67,33-196,0-267c-48-105-134-179-255-218c-48-16-89-21-182-21c-66,0-127,4-136,9c-13,8-9,42,36,279
		c29,149,55,287,59,307c6,34,10,37,44,41C18196,1793,18319,1789,18370,1774z"/>
	<path class="st0" d="M19690,2130c-134-17-227-32-239-39c-11-7-95-432-316-1589c-47-244-85-447-85-453c0-14,427-12,436,3
		c4,6,42,192,83,412l76,401l83,3c115,4,196-18,245-66c59-57,75-116,102-376c14-127,30-263,36-302l11-71l112-6c123-8,346-9,346-3
		c0,2-9,55-19,118c-11,62-27,187-36,278c-36,371-63,457-177,554c-42,36-42,37-18,43c14,4,65,27,114,51c211,105,336,300,336,522
		c0,252-148,420-439,498c-89,23-115,25-341,28C19865,2137,19726,2135,19690,2130z M20146,1770c112-39,169-114,168-220
		c0-91-29-156-98-226c-92-92-196-124-405-124c-102,0-103,0-98,23c3,12,27,130,52,262s48,252,51,267c6,32,17,34,167,37
		C20067,1790,20103,1786,20146,1770z"/>
	<path class="st0" d="M14315,2118c-2-7-90-467-195-1023S13927,77,13924,67c-5-16,28-17,637-15l643,3l33,170c17,94,32,176,32,183
		c1,9-89,12-415,12h-416l6,27c3,16,24,130,48,256l42,227h373c205,0,373,1,373,3c0,1,16,83,35,182s35,181,35,183c0,1-167,2-371,2
		h-371l6,38c4,20,23,121,42,225l36,187h394h394l5,23c3,12,20,97,39,190l33,167h-619C14452,2130,14318,2127,14315,2118z"/>
	<path class="st0" d="M15766,2108c3-13,85-242,181-509l175-486l-108-149c-59-82-233-319-386-527c-153-207-278-382-278-387
		c0-11,333-12,460-1l75,6l217,365c119,201,223,374,232,385c14,18,15,18,16,2c0-13,237-745,244-754c4-5,476-15,476-9
		c0,5-296,796-388,1036c-9,24,20,66,370,535l379,510l-262,3c-145,1-266-1-270-5c-18-19-279-451-347-573c-98-178-97-177-117-104
		c-31,112-116,400-161,542l-46,142h-234h-235L15766,2108z"/>
	<path class="st0" d="M21060,1108c-106-563-196-1033-198-1045l-4-23h640h640l6,28c3,15,17,90,31,167c15,77,29,150,32,163l5,22h-416
		c-330,0-416,3-416,13c0,7,20,118,45,247s45,238,45,243c0,4,168,7,374,7h374l22,118c12,64,28,147,35,185l13,67h-369
		c-354,0-369,1-369,19c0,16,63,352,77,409l5,22h394c217,0,394,1,394,3c0,1,16,82,35,181c19,98,35,182,35,187s-272,9-618,9h-617
		L21060,1108z"/>
</g>
</svg>
